<?xml version="1.0" standalone="no"?>
<!DOCTYPE svg PUBLIC "-//W3C//DTD SVG 20010904//EN"
 "http://www.w3.org/TR/2001/REC-SVG-20010904/DTD/svg10.dtd">
<svg version="1.0" xmlns="http://www.w3.org/2000/svg"
 width="264.000000pt" height="264.000000pt" viewBox="0 0 264.000000 264.000000"
 preserveAspectRatio="xMidYMid meet">
<metadata>
Created by potrace 1.14, written by Peter Selinger 2001-2017
</metadata>
<g transform="translate(0.000000,264.000000) scale(0.100000,-0.100000)"
fill="#000000" stroke="none">
<path d="M104 2303 c-17 -10 -43 -28 -58 -39 l-26 -22 0 -795 0 -795 37 -42
c72 -79 58 -77 593 -82 549 -6 530 -2 530 -87 0 -87 4 -86 -257 -86 l-228 0 0
-35 0 -35 624 -3 c342 -2 634 -1 648 3 20 5 23 10 17 28 -4 12 -12 25 -18 29
-6 4 -111 8 -233 8 l-223 0 -16 25 c-13 19 -15 38 -11 77 4 28 11 56 16 61 6
6 65 9 143 7 73 -1 221 -4 328 -5 107 -2 197 -4 200 -5 3 -1 62 -1 133 0 88 1
136 6 155 16 15 7 32 14 38 14 17 0 78 61 91 93 7 15 17 27 23 27 7 0 10 235
10 715 0 393 -4 715 -9 715 -4 0 -15 24 -24 54 -17 62 -63 118 -122 150 l-40
21 -1145 3 c-1078 2 -1147 1 -1176 -15z m1401 -58 c961 -7 907 -5 941 -31 45
-33 64 -66 71 -121 10 -91 45 -86 -482 -79 -253 3 -795 8 -1205 12 -817 7
-770 3 -770 65 0 34 33 110 58 132 31 28 93 34 367 31 143 -2 602 -6 1020 -9z
m-1211 -351 c9 -8 17 -21 17 -27 9 -72 13 -400 5 -425 -9 -28 -35 -42 -61 -32
-47 18 -50 32 -53 244 -3 193 -2 203 18 229 24 30 51 35 74 11z m20 -646 c21
-41 21 -159 1 -198 -19 -36 -53 -40 -81 -9 -16 18 -19 36 -18 116 0 81 3 98
19 109 32 24 62 17 79 -18z m1586 -463 c327 -3 603 -8 614 -11 27 -9 17 -86
-15 -121 -53 -56 -23 -54 -757 -53 -685 0 -1300 7 -1469 15 -107 5 -131 17
-168 80 -29 49 -32 80 -7 95 12 7 196 9 612 5 327 -3 863 -8 1190 -10z m-522
-298 c8 -6 12 -27 10 -56 -3 -45 -4 -46 -43 -52 -58 -10 -81 8 -81 61 1 51 26
74 71 64 16 -3 36 -11 43 -17z"/>
</g>
</svg>
